<mxfile host="app.diagrams.net" modified="2022-04-10T13:18:32.511Z" agent="5.0 (Macintosh; Intel Mac OS X 10_15_7) AppleWebKit/537.36 (KHTML, like Gecko) Chrome/99.0.4844.84 Safari/537.36" etag="Djp7HqO5fI2HTm019NvY" version="17.1.4" type="github">
  <diagram id="NC4l4BlaxListxS5bu-u" name="Page-1">
    <mxGraphModel dx="2703" dy="1754" grid="1" gridSize="10" guides="1" tooltips="1" connect="1" arrows="1" fold="1" page="1" pageScale="1" pageWidth="120000" pageHeight="90000" math="0" shadow="0">
      <root>
        <mxCell id="0" />
        <mxCell id="1" parent="0" />
        <mxCell id="HUQ5iRQfWzhphJ7qVzg7-1" value="" style="rounded=0;whiteSpace=wrap;html=1;" parent="1" vertex="1">
          <mxGeometry x="10" y="40" width="120" height="60" as="geometry" />
        </mxCell>
        <mxCell id="HUQ5iRQfWzhphJ7qVzg7-2" value="" style="rounded=0;whiteSpace=wrap;html=1;" parent="1" vertex="1">
          <mxGeometry x="190" y="150" width="120" height="60" as="geometry" />
        </mxCell>
        <mxCell id="HUQ5iRQfWzhphJ7qVzg7-3" value="" style="rounded=0;whiteSpace=wrap;html=1;" parent="1" vertex="1">
          <mxGeometry x="30" y="270" width="120" height="60" as="geometry" />
        </mxCell>
        <mxCell id="HUQ5iRQfWzhphJ7qVzg7-4" value="" style="rounded=0;whiteSpace=wrap;html=1;" parent="1" vertex="1">
          <mxGeometry x="34960" y="13130" width="120" height="60" as="geometry" />
        </mxCell>
        <mxCell id="HUQ5iRQfWzhphJ7qVzg7-39" style="edgeStyle=orthogonalEdgeStyle;rounded=0;orthogonalLoop=1;jettySize=auto;html=1;entryX=1;entryY=0.5;entryDx=0;entryDy=0;fontSize=34;exitX=0.5;exitY=0;exitDx=0;exitDy=0;" parent="1" source="HUQ5iRQfWzhphJ7qVzg7-7" target="HUQ5iRQfWzhphJ7qVzg7-12" edge="1">
          <mxGeometry relative="1" as="geometry" />
        </mxCell>
        <mxCell id="HUQ5iRQfWzhphJ7qVzg7-40" style="edgeStyle=orthogonalEdgeStyle;rounded=0;orthogonalLoop=1;jettySize=auto;html=1;entryX=0.25;entryY=0;entryDx=0;entryDy=0;fontSize=34;" parent="1" source="HUQ5iRQfWzhphJ7qVzg7-7" target="HUQ5iRQfWzhphJ7qVzg7-10" edge="1">
          <mxGeometry relative="1" as="geometry" />
        </mxCell>
        <mxCell id="HUQ5iRQfWzhphJ7qVzg7-41" style="edgeStyle=orthogonalEdgeStyle;rounded=0;orthogonalLoop=1;jettySize=auto;html=1;entryX=0;entryY=0.5;entryDx=0;entryDy=0;fontSize=34;startArrow=none;" parent="1" source="9b1ot4Xyo1f_5E6vs6Yv-9" target="HUQ5iRQfWzhphJ7qVzg7-14" edge="1">
          <mxGeometry relative="1" as="geometry" />
        </mxCell>
        <mxCell id="HUQ5iRQfWzhphJ7qVzg7-7" value="Cart" style="rounded=0;whiteSpace=wrap;html=1;fontSize=34;fillColor=#ffe6cc;strokeColor=#d79b00;" parent="1" vertex="1">
          <mxGeometry x="30800" y="12250" width="170" height="90" as="geometry" />
        </mxCell>
        <mxCell id="HUQ5iRQfWzhphJ7qVzg7-10" value="User ID" style="ellipse;whiteSpace=wrap;html=1;fontSize=34;fillColor=#fff2cc;strokeColor=#d6b656;" parent="1" vertex="1">
          <mxGeometry x="30580" y="12540" width="170" height="100" as="geometry" />
        </mxCell>
        <mxCell id="HUQ5iRQfWzhphJ7qVzg7-12" value="&lt;u&gt;Product ID&lt;/u&gt;" style="ellipse;whiteSpace=wrap;html=1;fontSize=34;fillColor=#fff2cc;strokeColor=#d6b656;" parent="1" vertex="1">
          <mxGeometry x="30550" y="12010" width="200" height="90" as="geometry" />
        </mxCell>
        <mxCell id="HUQ5iRQfWzhphJ7qVzg7-43" style="edgeStyle=orthogonalEdgeStyle;rounded=0;orthogonalLoop=1;jettySize=auto;html=1;entryX=0.5;entryY=0;entryDx=0;entryDy=0;fontSize=34;" parent="1" source="HUQ5iRQfWzhphJ7qVzg7-14" target="HUQ5iRQfWzhphJ7qVzg7-23" edge="1">
          <mxGeometry relative="1" as="geometry" />
        </mxCell>
        <mxCell id="HUQ5iRQfWzhphJ7qVzg7-44" style="edgeStyle=orthogonalEdgeStyle;rounded=0;orthogonalLoop=1;jettySize=auto;html=1;entryX=0.5;entryY=0;entryDx=0;entryDy=0;fontSize=34;" parent="1" source="HUQ5iRQfWzhphJ7qVzg7-14" target="HUQ5iRQfWzhphJ7qVzg7-21" edge="1">
          <mxGeometry relative="1" as="geometry" />
        </mxCell>
        <mxCell id="HUQ5iRQfWzhphJ7qVzg7-45" style="edgeStyle=orthogonalEdgeStyle;rounded=0;orthogonalLoop=1;jettySize=auto;html=1;entryX=0.5;entryY=0;entryDx=0;entryDy=0;fontSize=34;strokeColor=default;startArrow=none;" parent="1" source="9b1ot4Xyo1f_5E6vs6Yv-7" target="HUQ5iRQfWzhphJ7qVzg7-16" edge="1">
          <mxGeometry relative="1" as="geometry" />
        </mxCell>
        <mxCell id="HUQ5iRQfWzhphJ7qVzg7-46" style="edgeStyle=orthogonalEdgeStyle;rounded=0;orthogonalLoop=1;jettySize=auto;html=1;entryX=0.5;entryY=1;entryDx=0;entryDy=0;fontSize=34;" parent="1" source="HUQ5iRQfWzhphJ7qVzg7-14" target="HUQ5iRQfWzhphJ7qVzg7-18" edge="1">
          <mxGeometry relative="1" as="geometry" />
        </mxCell>
        <mxCell id="HUQ5iRQfWzhphJ7qVzg7-47" style="edgeStyle=orthogonalEdgeStyle;rounded=0;orthogonalLoop=1;jettySize=auto;html=1;entryX=0.426;entryY=1.016;entryDx=0;entryDy=0;entryPerimeter=0;fontSize=34;verticalAlign=middle;startArrow=none;" parent="1" target="HUQ5iRQfWzhphJ7qVzg7-17" edge="1">
          <mxGeometry relative="1" as="geometry">
            <mxPoint x="31440.047619047615" y="12022.547619047615" as="sourcePoint" />
          </mxGeometry>
        </mxCell>
        <mxCell id="HUQ5iRQfWzhphJ7qVzg7-49" style="edgeStyle=orthogonalEdgeStyle;rounded=0;orthogonalLoop=1;jettySize=auto;html=1;fontSize=34;" parent="1" source="HUQ5iRQfWzhphJ7qVzg7-14" target="HUQ5iRQfWzhphJ7qVzg7-22" edge="1">
          <mxGeometry relative="1" as="geometry" />
        </mxCell>
        <mxCell id="HUQ5iRQfWzhphJ7qVzg7-50" style="edgeStyle=orthogonalEdgeStyle;rounded=0;orthogonalLoop=1;jettySize=auto;html=1;entryX=0.5;entryY=1;entryDx=0;entryDy=0;fontSize=34;" parent="1" source="HUQ5iRQfWzhphJ7qVzg7-14" target="HUQ5iRQfWzhphJ7qVzg7-24" edge="1">
          <mxGeometry relative="1" as="geometry" />
        </mxCell>
        <mxCell id="9b1ot4Xyo1f_5E6vs6Yv-12" style="edgeStyle=orthogonalEdgeStyle;rounded=0;orthogonalLoop=1;jettySize=auto;html=1;exitX=0.25;exitY=1;exitDx=0;exitDy=0;strokeColor=default;" edge="1" parent="1" source="HUQ5iRQfWzhphJ7qVzg7-14" target="9b1ot4Xyo1f_5E6vs6Yv-13">
          <mxGeometry relative="1" as="geometry">
            <mxPoint x="31291.285714285717" y="12680" as="targetPoint" />
          </mxGeometry>
        </mxCell>
        <mxCell id="HUQ5iRQfWzhphJ7qVzg7-14" value="User" style="rounded=0;whiteSpace=wrap;html=1;fontSize=34;fillColor=#ffe6cc;strokeColor=#d79b00;" parent="1" vertex="1">
          <mxGeometry x="31240" y="12120" width="210" height="110" as="geometry" />
        </mxCell>
        <mxCell id="HUQ5iRQfWzhphJ7qVzg7-51" style="edgeStyle=orthogonalEdgeStyle;rounded=0;orthogonalLoop=1;jettySize=auto;html=1;entryX=0.5;entryY=1;entryDx=0;entryDy=0;fontSize=34;" parent="1" source="HUQ5iRQfWzhphJ7qVzg7-16" target="HUQ5iRQfWzhphJ7qVzg7-34" edge="1">
          <mxGeometry relative="1" as="geometry" />
        </mxCell>
        <mxCell id="HUQ5iRQfWzhphJ7qVzg7-52" style="edgeStyle=orthogonalEdgeStyle;rounded=0;orthogonalLoop=1;jettySize=auto;html=1;entryX=0.5;entryY=1;entryDx=0;entryDy=0;fontSize=34;" parent="1" source="HUQ5iRQfWzhphJ7qVzg7-16" target="HUQ5iRQfWzhphJ7qVzg7-36" edge="1">
          <mxGeometry relative="1" as="geometry" />
        </mxCell>
        <mxCell id="HUQ5iRQfWzhphJ7qVzg7-53" style="edgeStyle=orthogonalEdgeStyle;rounded=0;orthogonalLoop=1;jettySize=auto;html=1;entryX=0.5;entryY=0;entryDx=0;entryDy=0;fontSize=34;" parent="1" source="HUQ5iRQfWzhphJ7qVzg7-16" target="HUQ5iRQfWzhphJ7qVzg7-37" edge="1">
          <mxGeometry relative="1" as="geometry" />
        </mxCell>
        <mxCell id="HUQ5iRQfWzhphJ7qVzg7-55" style="edgeStyle=orthogonalEdgeStyle;rounded=0;orthogonalLoop=1;jettySize=auto;html=1;entryX=0.5;entryY=0;entryDx=0;entryDy=0;fontSize=34;" parent="1" source="HUQ5iRQfWzhphJ7qVzg7-16" target="HUQ5iRQfWzhphJ7qVzg7-54" edge="1">
          <mxGeometry relative="1" as="geometry" />
        </mxCell>
        <mxCell id="HUQ5iRQfWzhphJ7qVzg7-60" style="edgeStyle=orthogonalEdgeStyle;rounded=0;orthogonalLoop=1;jettySize=auto;html=1;entryX=0;entryY=0.5;entryDx=0;entryDy=0;fontSize=34;" parent="1" source="HUQ5iRQfWzhphJ7qVzg7-16" target="HUQ5iRQfWzhphJ7qVzg7-59" edge="1">
          <mxGeometry relative="1" as="geometry" />
        </mxCell>
        <mxCell id="HUQ5iRQfWzhphJ7qVzg7-61" style="edgeStyle=orthogonalEdgeStyle;rounded=0;orthogonalLoop=1;jettySize=auto;html=1;entryX=0;entryY=0.5;entryDx=0;entryDy=0;fontSize=34;" parent="1" source="HUQ5iRQfWzhphJ7qVzg7-16" target="HUQ5iRQfWzhphJ7qVzg7-57" edge="1">
          <mxGeometry relative="1" as="geometry" />
        </mxCell>
        <mxCell id="HUQ5iRQfWzhphJ7qVzg7-62" style="edgeStyle=orthogonalEdgeStyle;rounded=0;orthogonalLoop=1;jettySize=auto;html=1;entryX=0;entryY=0.75;entryDx=0;entryDy=0;fontSize=34;" parent="1" source="HUQ5iRQfWzhphJ7qVzg7-16" target="HUQ5iRQfWzhphJ7qVzg7-58" edge="1">
          <mxGeometry relative="1" as="geometry" />
        </mxCell>
        <mxCell id="HUQ5iRQfWzhphJ7qVzg7-16" value="Order" style="rounded=0;whiteSpace=wrap;html=1;fontSize=34;fillColor=#ffe6cc;strokeColor=#d79b00;glass=0;" parent="1" vertex="1">
          <mxGeometry x="31770" y="12160" width="240" height="160" as="geometry" />
        </mxCell>
        <mxCell id="HUQ5iRQfWzhphJ7qVzg7-17" value="&lt;u&gt;User Id&lt;/u&gt;" style="ellipse;whiteSpace=wrap;html=1;fontSize=34;fillColor=#fff2cc;strokeColor=#d6b656;" parent="1" vertex="1">
          <mxGeometry x="31450" y="11930" width="160" height="80" as="geometry" />
        </mxCell>
        <mxCell id="HUQ5iRQfWzhphJ7qVzg7-18" value="Username" style="ellipse;whiteSpace=wrap;html=1;fontSize=34;fillColor=#fff2cc;strokeColor=#d6b656;" parent="1" vertex="1">
          <mxGeometry x="31100" y="11930" width="180" height="80" as="geometry" />
        </mxCell>
        <mxCell id="HUQ5iRQfWzhphJ7qVzg7-21" value="Email" style="ellipse;whiteSpace=wrap;html=1;fontSize=34;fillColor=#fff2cc;strokeColor=#d6b656;" parent="1" vertex="1">
          <mxGeometry x="31450" y="12340" width="150" height="90" as="geometry" />
        </mxCell>
        <mxCell id="HUQ5iRQfWzhphJ7qVzg7-22" value="Password" style="ellipse;whiteSpace=wrap;html=1;fontSize=34;fillColor=#fff2cc;strokeColor=#d6b656;" parent="1" vertex="1">
          <mxGeometry x="31040" y="12340" width="200" height="80" as="geometry" />
        </mxCell>
        <mxCell id="HUQ5iRQfWzhphJ7qVzg7-23" value="isAdmin" style="ellipse;whiteSpace=wrap;html=1;fontSize=34;fillColor=#fff2cc;strokeColor=#d6b656;" parent="1" vertex="1">
          <mxGeometry x="31260" y="12300" width="170" height="85" as="geometry" />
        </mxCell>
        <mxCell id="HUQ5iRQfWzhphJ7qVzg7-24" value="img" style="ellipse;whiteSpace=wrap;html=1;fontSize=34;fillColor=#fff2cc;strokeColor=#d6b656;" parent="1" vertex="1">
          <mxGeometry x="31285" y="11840" width="120" height="60" as="geometry" />
        </mxCell>
        <mxCell id="HUQ5iRQfWzhphJ7qVzg7-34" value="&lt;u&gt;Order Id&lt;/u&gt;" style="ellipse;whiteSpace=wrap;html=1;fontSize=34;fillColor=#fff2cc;strokeColor=#d6b656;" parent="1" vertex="1">
          <mxGeometry x="31690" y="11952.5" width="150" height="70" as="geometry" />
        </mxCell>
        <mxCell id="HUQ5iRQfWzhphJ7qVzg7-36" value="User ID" style="ellipse;whiteSpace=wrap;html=1;fontSize=34;fillColor=#fff2cc;strokeColor=#d6b656;" parent="1" vertex="1">
          <mxGeometry x="31950" y="11955" width="140" height="65" as="geometry" />
        </mxCell>
        <mxCell id="HUQ5iRQfWzhphJ7qVzg7-37" value="Product Id" style="ellipse;whiteSpace=wrap;html=1;fontSize=34;fillColor=#fff2cc;strokeColor=#d6b656;" parent="1" vertex="1">
          <mxGeometry x="31670" y="12390" width="200" height="90" as="geometry" />
        </mxCell>
        <mxCell id="HUQ5iRQfWzhphJ7qVzg7-54" value="Quantity" style="ellipse;whiteSpace=wrap;html=1;fontSize=34;fillColor=#fff2cc;strokeColor=#d6b656;" parent="1" vertex="1">
          <mxGeometry x="31930" y="12390" width="180" height="90" as="geometry" />
        </mxCell>
        <mxCell id="HUQ5iRQfWzhphJ7qVzg7-57" value="Amount" style="ellipse;whiteSpace=wrap;html=1;fontSize=34;fillColor=#fff2cc;strokeColor=#d6b656;" parent="1" vertex="1">
          <mxGeometry x="32225" y="11860" width="150" height="80" as="geometry" />
        </mxCell>
        <mxCell id="HUQ5iRQfWzhphJ7qVzg7-58" value="Address" style="ellipse;whiteSpace=wrap;html=1;fontSize=34;fillColor=#fff2cc;strokeColor=#d6b656;" parent="1" vertex="1">
          <mxGeometry x="32225" y="11980" width="160" height="100" as="geometry" />
        </mxCell>
        <mxCell id="HUQ5iRQfWzhphJ7qVzg7-59" value="Status" style="ellipse;whiteSpace=wrap;html=1;fontSize=34;fillColor=#fff2cc;strokeColor=#d6b656;" parent="1" vertex="1">
          <mxGeometry x="32225" y="11730" width="150" height="90" as="geometry" />
        </mxCell>
        <mxCell id="9b1ot4Xyo1f_5E6vs6Yv-6" value="" style="edgeStyle=orthogonalEdgeStyle;rounded=0;orthogonalLoop=1;jettySize=auto;html=1;fontSize=34;verticalAlign=middle;endArrow=none;" edge="1" parent="1" source="HUQ5iRQfWzhphJ7qVzg7-14">
          <mxGeometry relative="1" as="geometry">
            <mxPoint x="31345.11111111111" y="12120" as="sourcePoint" />
            <mxPoint x="31440" y="12020" as="targetPoint" />
          </mxGeometry>
        </mxCell>
        <mxCell id="9b1ot4Xyo1f_5E6vs6Yv-7" value="1" style="rhombus;whiteSpace=wrap;html=1;rounded=0;glass=0;" vertex="1" parent="1">
          <mxGeometry x="31520" y="12135" width="80" height="80" as="geometry" />
        </mxCell>
        <mxCell id="9b1ot4Xyo1f_5E6vs6Yv-8" value="" style="edgeStyle=orthogonalEdgeStyle;rounded=0;orthogonalLoop=1;jettySize=auto;html=1;entryX=-0.011;entryY=0.605;entryDx=0;entryDy=0;entryPerimeter=0;fontSize=34;strokeColor=default;endArrow=none;" edge="1" parent="1" source="HUQ5iRQfWzhphJ7qVzg7-14" target="9b1ot4Xyo1f_5E6vs6Yv-7">
          <mxGeometry relative="1" as="geometry">
            <mxPoint x="31450" y="12175" as="sourcePoint" />
            <mxPoint x="31757.36" y="12246.8" as="targetPoint" />
          </mxGeometry>
        </mxCell>
        <mxCell id="9b1ot4Xyo1f_5E6vs6Yv-9" value="2" style="rhombus;whiteSpace=wrap;html=1;rounded=0;glass=0;" vertex="1" parent="1">
          <mxGeometry x="31020" y="12250" width="80" height="80" as="geometry" />
        </mxCell>
        <mxCell id="9b1ot4Xyo1f_5E6vs6Yv-10" value="" style="edgeStyle=orthogonalEdgeStyle;rounded=0;orthogonalLoop=1;jettySize=auto;html=1;entryX=0;entryY=0.5;entryDx=0;entryDy=0;fontSize=34;endArrow=none;" edge="1" parent="1" source="HUQ5iRQfWzhphJ7qVzg7-7" target="9b1ot4Xyo1f_5E6vs6Yv-9">
          <mxGeometry relative="1" as="geometry">
            <mxPoint x="30970" y="12295" as="sourcePoint" />
            <mxPoint x="31240" y="12175" as="targetPoint" />
          </mxGeometry>
        </mxCell>
        <mxCell id="9b1ot4Xyo1f_5E6vs6Yv-41" style="edgeStyle=orthogonalEdgeStyle;rounded=0;orthogonalLoop=1;jettySize=auto;html=1;entryX=0;entryY=0.5;entryDx=0;entryDy=0;fontSize=34;strokeColor=default;" edge="1" parent="1" source="9b1ot4Xyo1f_5E6vs6Yv-13" target="HUQ5iRQfWzhphJ7qVzg7-16">
          <mxGeometry relative="1" as="geometry" />
        </mxCell>
        <mxCell id="9b1ot4Xyo1f_5E6vs6Yv-13" value="&lt;font style=&quot;font-size: 34px&quot;&gt;Product&lt;/font&gt;" style="rounded=0;whiteSpace=wrap;html=1;glass=0;fillColor=#ffe6cc;strokeColor=#d79b00;" vertex="1" parent="1">
          <mxGeometry x="31140" y="12710" width="300" height="130" as="geometry" />
        </mxCell>
        <mxCell id="9b1ot4Xyo1f_5E6vs6Yv-21" style="edgeStyle=orthogonalEdgeStyle;rounded=0;orthogonalLoop=1;jettySize=auto;html=1;entryX=0;entryY=0.5;entryDx=0;entryDy=0;fontSize=34;strokeColor=default;" edge="1" parent="1" source="9b1ot4Xyo1f_5E6vs6Yv-19" target="9b1ot4Xyo1f_5E6vs6Yv-13">
          <mxGeometry relative="1" as="geometry" />
        </mxCell>
        <mxCell id="9b1ot4Xyo1f_5E6vs6Yv-19" value="Color" style="ellipse;whiteSpace=wrap;html=1;rounded=0;glass=0;fontSize=34;fillColor=#fff2cc;strokeColor=#d6b656;" vertex="1" parent="1">
          <mxGeometry x="30720" y="12670" width="150" height="100" as="geometry" />
        </mxCell>
        <mxCell id="9b1ot4Xyo1f_5E6vs6Yv-23" style="edgeStyle=orthogonalEdgeStyle;rounded=0;orthogonalLoop=1;jettySize=auto;html=1;entryX=0;entryY=0.5;entryDx=0;entryDy=0;fontSize=34;strokeColor=default;" edge="1" parent="1" source="9b1ot4Xyo1f_5E6vs6Yv-22" target="9b1ot4Xyo1f_5E6vs6Yv-13">
          <mxGeometry relative="1" as="geometry" />
        </mxCell>
        <mxCell id="9b1ot4Xyo1f_5E6vs6Yv-22" value="img" style="ellipse;whiteSpace=wrap;html=1;rounded=0;glass=0;fontSize=34;fillColor=#fff2cc;strokeColor=#d6b656;" vertex="1" parent="1">
          <mxGeometry x="30720" y="12840" width="150" height="90" as="geometry" />
        </mxCell>
        <mxCell id="9b1ot4Xyo1f_5E6vs6Yv-25" style="edgeStyle=orthogonalEdgeStyle;rounded=0;orthogonalLoop=1;jettySize=auto;html=1;entryX=0;entryY=0.5;entryDx=0;entryDy=0;fontSize=34;strokeColor=default;" edge="1" parent="1" source="9b1ot4Xyo1f_5E6vs6Yv-24" target="9b1ot4Xyo1f_5E6vs6Yv-13">
          <mxGeometry relative="1" as="geometry" />
        </mxCell>
        <mxCell id="9b1ot4Xyo1f_5E6vs6Yv-24" value="Categories" style="ellipse;whiteSpace=wrap;html=1;rounded=0;glass=0;fontSize=34;fillColor=#fff2cc;strokeColor=#d6b656;" vertex="1" parent="1">
          <mxGeometry x="30690" y="13000" width="180" height="110" as="geometry" />
        </mxCell>
        <mxCell id="9b1ot4Xyo1f_5E6vs6Yv-29" style="edgeStyle=orthogonalEdgeStyle;rounded=0;orthogonalLoop=1;jettySize=auto;html=1;entryX=0.5;entryY=1;entryDx=0;entryDy=0;fontSize=34;strokeColor=default;" edge="1" parent="1" source="9b1ot4Xyo1f_5E6vs6Yv-26" target="9b1ot4Xyo1f_5E6vs6Yv-13">
          <mxGeometry relative="1" as="geometry" />
        </mxCell>
        <mxCell id="9b1ot4Xyo1f_5E6vs6Yv-26" value="Title" style="ellipse;whiteSpace=wrap;html=1;rounded=0;glass=0;fontSize=34;fillColor=#fff2cc;strokeColor=#d6b656;" vertex="1" parent="1">
          <mxGeometry x="31270" y="13120" width="180" height="110" as="geometry" />
        </mxCell>
        <mxCell id="9b1ot4Xyo1f_5E6vs6Yv-28" style="edgeStyle=orthogonalEdgeStyle;rounded=0;orthogonalLoop=1;jettySize=auto;html=1;entryX=0.5;entryY=1;entryDx=0;entryDy=0;fontSize=34;strokeColor=default;" edge="1" parent="1" source="9b1ot4Xyo1f_5E6vs6Yv-27" target="9b1ot4Xyo1f_5E6vs6Yv-13">
          <mxGeometry relative="1" as="geometry" />
        </mxCell>
        <mxCell id="9b1ot4Xyo1f_5E6vs6Yv-49" style="edgeStyle=orthogonalEdgeStyle;rounded=0;orthogonalLoop=1;jettySize=auto;html=1;entryX=0.5;entryY=1;entryDx=0;entryDy=0;fontSize=34;strokeColor=default;" edge="1" parent="1" source="9b1ot4Xyo1f_5E6vs6Yv-27" target="HUQ5iRQfWzhphJ7qVzg7-37">
          <mxGeometry relative="1" as="geometry" />
        </mxCell>
        <mxCell id="9b1ot4Xyo1f_5E6vs6Yv-27" value="&lt;u&gt;ProductID&lt;/u&gt;" style="ellipse;whiteSpace=wrap;html=1;rounded=0;glass=0;fontSize=34;fillColor=#fff2cc;strokeColor=#d6b656;" vertex="1" parent="1">
          <mxGeometry x="31000" y="13190" width="180" height="140" as="geometry" />
        </mxCell>
        <mxCell id="9b1ot4Xyo1f_5E6vs6Yv-31" style="edgeStyle=orthogonalEdgeStyle;rounded=0;orthogonalLoop=1;jettySize=auto;html=1;exitX=0;exitY=0.5;exitDx=0;exitDy=0;entryX=1;entryY=0.5;entryDx=0;entryDy=0;fontSize=34;strokeColor=default;" edge="1" parent="1" source="9b1ot4Xyo1f_5E6vs6Yv-30" target="9b1ot4Xyo1f_5E6vs6Yv-13">
          <mxGeometry relative="1" as="geometry" />
        </mxCell>
        <mxCell id="9b1ot4Xyo1f_5E6vs6Yv-30" value="Size" style="ellipse;whiteSpace=wrap;html=1;rounded=0;glass=0;fontSize=34;fillColor=#fff2cc;strokeColor=#d6b656;" vertex="1" parent="1">
          <mxGeometry x="31870" y="12660" width="160" height="110" as="geometry" />
        </mxCell>
        <mxCell id="9b1ot4Xyo1f_5E6vs6Yv-33" style="edgeStyle=orthogonalEdgeStyle;rounded=0;orthogonalLoop=1;jettySize=auto;html=1;entryX=1;entryY=0.5;entryDx=0;entryDy=0;fontSize=34;strokeColor=default;" edge="1" parent="1" source="9b1ot4Xyo1f_5E6vs6Yv-32" target="9b1ot4Xyo1f_5E6vs6Yv-13">
          <mxGeometry relative="1" as="geometry" />
        </mxCell>
        <mxCell id="9b1ot4Xyo1f_5E6vs6Yv-32" value="Price" style="ellipse;whiteSpace=wrap;html=1;rounded=0;glass=0;fontSize=34;fillColor=#fff2cc;strokeColor=#d6b656;" vertex="1" parent="1">
          <mxGeometry x="31890" y="12870" width="150" height="110" as="geometry" />
        </mxCell>
        <mxCell id="9b1ot4Xyo1f_5E6vs6Yv-35" style="edgeStyle=orthogonalEdgeStyle;rounded=0;orthogonalLoop=1;jettySize=auto;html=1;entryX=1;entryY=0.5;entryDx=0;entryDy=0;fontSize=34;strokeColor=default;" edge="1" parent="1" source="9b1ot4Xyo1f_5E6vs6Yv-34" target="9b1ot4Xyo1f_5E6vs6Yv-13">
          <mxGeometry relative="1" as="geometry" />
        </mxCell>
        <mxCell id="9b1ot4Xyo1f_5E6vs6Yv-42" value="1" style="edgeLabel;html=1;align=center;verticalAlign=middle;resizable=0;points=[];fontSize=34;" vertex="1" connectable="0" parent="9b1ot4Xyo1f_5E6vs6Yv-35">
          <mxGeometry x="0.7959" y="-5" relative="1" as="geometry">
            <mxPoint as="offset" />
          </mxGeometry>
        </mxCell>
        <mxCell id="9b1ot4Xyo1f_5E6vs6Yv-34" value="InStock" style="ellipse;whiteSpace=wrap;html=1;rounded=0;glass=0;fontSize=34;fillColor=#fff2cc;strokeColor=#d6b656;" vertex="1" parent="1">
          <mxGeometry x="31880" y="13080" width="160" height="110" as="geometry" />
        </mxCell>
        <mxCell id="9b1ot4Xyo1f_5E6vs6Yv-36" value="3" style="rhombus;whiteSpace=wrap;html=1;rounded=0;glass=0;fontSize=34;" vertex="1" parent="1">
          <mxGeometry x="31250" y="12490" width="80" height="80" as="geometry" />
        </mxCell>
        <mxCell id="9b1ot4Xyo1f_5E6vs6Yv-37" value="1" style="text;html=1;align=center;verticalAlign=middle;resizable=0;points=[];autosize=1;strokeColor=none;fillColor=none;fontSize=34;" vertex="1" parent="1">
          <mxGeometry x="31125" y="12235" width="30" height="50" as="geometry" />
        </mxCell>
        <mxCell id="9b1ot4Xyo1f_5E6vs6Yv-38" value="1" style="text;html=1;align=center;verticalAlign=middle;resizable=0;points=[];autosize=1;strokeColor=none;fillColor=none;fontSize=34;" vertex="1" parent="1">
          <mxGeometry x="30985" y="12285" width="30" height="50" as="geometry" />
        </mxCell>
        <mxCell id="9b1ot4Xyo1f_5E6vs6Yv-39" value="n" style="text;html=1;align=center;verticalAlign=middle;resizable=0;points=[];autosize=1;strokeColor=none;fillColor=none;fontSize=34;" vertex="1" parent="1">
          <mxGeometry x="31475" y="12125" width="30" height="50" as="geometry" />
        </mxCell>
        <mxCell id="9b1ot4Xyo1f_5E6vs6Yv-44" value="n" style="text;html=1;align=center;verticalAlign=middle;resizable=0;points=[];autosize=1;strokeColor=none;fillColor=none;fontSize=34;" vertex="1" parent="1">
          <mxGeometry x="31705" y="12195" width="30" height="50" as="geometry" />
        </mxCell>
        <mxCell id="9b1ot4Xyo1f_5E6vs6Yv-48" value="1" style="text;html=1;align=center;verticalAlign=middle;resizable=0;points=[];autosize=1;strokeColor=none;fillColor=none;fontSize=34;" vertex="1" parent="1">
          <mxGeometry x="31825" y="12105" width="30" height="50" as="geometry" />
        </mxCell>
      </root>
    </mxGraphModel>
  </diagram>
</mxfile>
